<svg xmlns="http://www.w3.org/2000/svg"  style="display: none">
	<symbol viewBox="0 0 16 16" id="ingress">
		<polygon fill="currentColor" points="0 7 7.01 7 7.01 4.06 10.96 8.01 7.01 11.91 7.01 9.06 0 9.02 0 7"/>
		<polygon fill="currentColor" points="7.01 0 7.01 2 14.03 2 14.03 13.99 7.01 13.99 7.01 16 16 16 16 0 7.01 0"/>
	</symbol>
	<symbol viewBox="0 0 26.14 14.91" id="icon-vkontakte">
		<path fill="currentColor" d="M26 13.47l-.09-.17a13.55 13.55 0 0 0-2.6-3q-.87-.83-1.1-1.12A1 1 0 0 1 22 8a10.27 10.27 0 0 1 1.22-1.78l.88-1.16q2.35-3.13 2-4L26 .94a.8.8 0 0 0-.4-.22 2.14 2.14 0 0 0-.87 0h-3.92a.51.51 0 0 0-.27 0h-.3a.6.6 0 0 0-.15.14.93.93 0 0 0-.14.24 22.22 22.22 0 0 1-1.46 3.06q-.5.84-.93 1.46a7 7 0 0 1-.71.91 4.94 4.94 0 0 1-.52.47q-.23.18-.35.15l-.23-.05a.9.9 0 0 1-.31-.33 1.49 1.49 0 0 1-.16-.53V1.6a3.14 3.14 0 0 0 0-.62 2.12 2.12 0 0 0-.14-.44.73.73 0 0 0-.28-.33 1.57 1.57 0 0 0-.46-.18A9 9 0 0 0 12.57 0a8.93 8.93 0 0 0-3.25.33 1.83 1.83 0 0 0-.52.41q-.25.3-.07.33a1.67 1.67 0 0 1 1.16.59l.08.16a2.6 2.6 0 0 1 .19.63 6.32 6.32 0 0 1 .12 1 10.59 10.59 0 0 1 0 1.7q-.07.71-.13 1.1a2.21 2.21 0 0 1-.18.64 2.69 2.69 0 0 1-.16.3l-.07.07a1 1 0 0 1-.37.07.86.86 0 0 1-.46-.19 3.27 3.27 0 0 1-.56-.52 7 7 0 0 1-.66-.93q-.37-.6-.76-1.42l-.22-.39q-.2-.38-.56-1.11t-.62-1.43A.9.9 0 0 0 5.2.9h-.07a.93.93 0 0 0-.22-.16A1.44 1.44 0 0 0 4.6.65L.87.68A1 1 0 0 0 .1.94L0 1a.44.44 0 0 0 0 .22 1.08 1.08 0 0 0 .08.37Q.9 3.53 1.86 5.31t1.66 2.87Q4.23 9.27 5 10.24t1 1.24l.37.41.34.33a8.06 8.06 0 0 0 1 .78 16.34 16.34 0 0 0 1.4.9 7.6 7.6 0 0 0 1.79.72 6.19 6.19 0 0 0 2 .22h1.57a1.08 1.08 0 0 0 .72-.3l.05-.07a.9.9 0 0 0 .1-.25 1.38 1.38 0 0 0 0-.37 4.48 4.48 0 0 1 .09-1.05 2.77 2.77 0 0 1 .23-.71 1.74 1.74 0 0 1 .29-.4 1.19 1.19 0 0 1 .23-.2h.11a.86.86 0 0 1 .77.21 4.52 4.52 0 0 1 .83.79q.39.47.93 1.05a6.41 6.41 0 0 0 1 .87l.27.16a3.31 3.31 0 0 0 .71.3 1.53 1.53 0 0 0 .76.07l3.48-.05a1.58 1.58 0 0 0 .8-.17.68.68 0 0 0 .34-.37 1.06 1.06 0 0 0 0-.46 1.71 1.71 0 0 0-.1-.36z"/>
	</symbol>
	<symbol viewBox="0 0 10.15 21.74" id="icon-facebook">
		<path fill="currentColor" d="M3.34 1.12A4.77 4.77 0 0 1 6.53 0h3.61v3.81H7.81a1.07 1.07 0 0 0-1.09.83v2.55h3.42c-.08 1.23-.24 2.45-.41 3.67h-3v10.87H2.21V10.86H0V7.21h2.19V3.66a3.83 3.83 0 0 1 1.15-2.54z"/>
	</symbol>
	<symbol viewBox="0 0 512 512" id="icon-instagram">
		<path fill="currentColor" d="M480 0H32C14.3 0 0 14.3 0 32v448c0 17.7 14.3 32 32 32h448c17.7 0 32-14.3 32-32V32c0-17.7-14.3-32-32-32zM192 256s5.1-64 64-64 64 64 64 64 1.8 64-64 64-64-64-64-64zm256 192H64V224h68.5c-2.7 10.3-4.5 20.9-4.5 32 0 70.7 57.3 128 128 128s128-57.3 128-128c0-11.1-1.9-21.7-4.5-32H448v224zm0-288h-96V64h96v96z"/>
	</symbol>
	<symbol viewBox="0 0 1000 1000" id="icon-comb">
		<path fill="currentColor" d="M751.15 15.26c-90.67 24.06-223.7 125.42-415.52 316.83C149.97 517.34 48.6 646.87 18.18 737.75c-9.25 27.55-10.69 55.31-4.11 73.4 5.35 14.19 22.62 33.1 60.24 66.21 62.3 54.9 128.3 95.61 174.97 107.53 16.04 4.11 50.37 5.76 53.46 2.67.82-.82-32.9-35.77-74.63-77.51-56.75-56.75-77.1-78.54-80.19-85.53-9.05-19.94-3.5-43.38 14.19-60.65l8.22-8.02 90.05 89.64c49.34 49.55 92.52 90.88 95.61 92.11 27.96 10.28 58.19-17.06 50.78-45.64-2.06-7.81-12.95-19.53-91.7-98.28-49.14-49.14-89.23-90.46-89.23-91.49 0-1.23 7.61-9.66 17.06-19.12l16.86-16.86 88.41 88.62c48.73 48.73 90.67 89.64 93.55 91.08 19.12 9.87 41.94 1.64 52.22-18.71 3.7-7.61 4.32-23.44 1.03-30.02-1.23-2.47-42.56-45.03-91.9-94.37l-89.85-90.05 18.09-17.89 17.89-18.11 88.82 88.82c60.65 60.65 91.49 89.85 96.63 92.11 18.91 7.81 40.09-1.03 49.14-20.56 4.73-10.07 4.94-19.32.82-29.4-2.26-5.14-31.46-35.98-92.11-96.63l-88.82-88.82 18.09-17.89 17.89-18.09 90.05 89.85c49.34 49.35 91.91 90.67 94.37 91.9 6.99 3.5 22.62 2.67 31.46-1.85 15.83-8.02 24.88-27.14 20.56-43.79-2.06-7.61-12.95-19.33-91.7-98.07-49.14-49.14-89.23-90.46-89.23-91.49s7.61-9.66 16.86-18.92l17.06-17.06 90.46 90.26c79.77 79.57 91.49 90.67 99.31 92.73 16.45 4.32 35.57-4.73 43.59-20.56 4.52-8.84 5.34-24.46 1.85-31.46-1.23-2.47-42.56-45.03-91.9-94.37l-89.84-90.07 18.09-17.89 17.89-18.09 89.03 88.82c60.86 60.86 91.29 89.85 96.43 92.11 19.12 7.81 40.09-1.03 49.14-20.56 4.73-10.07 4.93-19.33.82-29.4-2.26-5.14-31.46-35.98-92.11-96.63l-88.82-88.82 18.09-17.89 17.89-18.09 90.05 89.85c49.34 49.34 91.9 90.67 94.37 91.9 12.54 6.37 34.95 0 44.62-12.75 4.93-6.37 9.87-22.21 8.43-26.93-.41-1.23-1.23-5.14-2.06-8.43-1.03-4.52-24.47-29.4-91.7-96.84l-90.46-90.67 7.2-6.37c12.54-11.1 19.33-13.57 35.16-13.57 10.9 0 16.45 1.03 22.62 4.32 4.52 2.47 41.74 38.04 83.27 79.57 41.33 41.33 75.66 75.25 76.48 75.25 3.08 0 4.11-23.03 1.64-37.42-10.08-59.42-60.04-138.58-138.37-218.97-29.2-29.81-36.39-33.92-63.12-34.95-13.58-.42-21.6.4-35.99 4.31z"/>
	</symbol>
		<symbol viewBox="0 0 51.5 49.5" id="icon-admiral">
		<path fill="currentColor" d="M50.9 0h-.2c-2.3 7.7-2.9 17.1-9.4 20.6-1.2-3.4-4.1-4.9-7.4-6.4-2.1-.9-4.5-2.6-6.6-2.6-.5 0-1 0-1.5.3-.5-.3-1-.3-1.5-.3-2.1.1-4.5 1.7-6.6 2.6-3.3 1.5-6.3 3-7.4 6.4C3.8 17.1 3.2 7.7.9 0H.6C.3.7.2 1.6 0 2.4c0 1.9.5 21.5 1.9 28.4C3.2 37.2 8 41.7 12.7 44.7c3.3 2.1 8.5 4.8 13 4.8s9.7-2.8 13-4.8c4.7-3 9.6-7.5 10.8-13.8 1.4-7 1.9-26.5 1.9-28.4-.1-.9-.2-1.8-.5-2.5zM37 28.1c-.2 1.6-1.7 3.4-3.4 3.5-3 .2-4.5-4.4-7.9-4.4-3.4 0-4.9 4.5-7.9 4.4-1.7-.1-3.1-1.9-3.4-3.5-.3-1.9.6-4.6 1.7-5.6 1.1-1.1 2.8-.9 4.7-1.2 2-.3 3.8-.9 4.9-1.9 1.1 1.1 2.8 1.7 4.9 1.9 1.9.3 3.6.1 4.7 1.2 1.1 1 2 3.7 1.7 5.6z"/>
	</symbol>

	<symbol viewBox="0 0 57.7 68.6" id="icon-woodsman">
		<path fill="currentColor" d="M51.6 22.2c.1-1.7.5-3.5.7-5.4.7-5.4 1.6-11.7-.1-16.8H52c-1.3 3.7-1.3 8.3-2.2 12.4-.7 3-1.8 5.7-3.2 7.6-.5.7-1.1 1.5-1.9 1.8-.7-3.9-4.3-4.9-7.7-6.4-2.1-.9-4-2-6.1-2.2-.8-.1-1.5.2-2 .2s-1.2-.3-2-.2c-2.1.1-4 1.3-6.1 2.2-3.4 1.4-7 2.4-7.7 6.4-.9-.3-1.4-1.1-1.9-1.8-1.5-1.9-2.6-4.6-3.2-7.6C7 8.3 7 3.7 5.7 0h-.2c-1.7 5.1-.8 11.4-.1 16.8.2 1.9.6 3.7.7 5.4.8 11.1-7 23.1-6 28.9.9 7.5 8.4 9.4 14.2 12.4 4.3 2.2 8.3 5 13.3 5.2h2.6c5-.2 9-2.9 13.3-5.2 5.8-3 13.2-4.8 14.2-12.4.9-5.8-6.9-17.8-6.1-28.9zm-22.8 3.7c-2.5 0-5.1-.1-7.2-.5.7-2.1 4-1.6 7.1-1.6h.2c3 0 6.4-.5 7.1 1.6-2.1.5-4.6.6-7.2.5z"/>
	</symbol>

	<symbol viewBox="0 0 62.4 78.5" id="icon-polarman">
		<path fill="currentColor" d="M62.4 42c0-5.2-2.4-7.8-3.6-10-.9-1.6-4-10.8-4.2-17.6C54.5 9.5 52.9 2 51.7 0c-.9 0-1.5 7.8-2.3 11.6-1.4 7-3.8 8.9-4.4 9-.8-2.8-4.1-7.4-13.7-7.7h-.2c-9.6.4-12.9 4.9-13.7 7.7-.7-.1-3-2-4.4-9C12.2 7.8 11.5 0 10.7 0 9.5 2 7.9 9.5 7.8 14.4c-.2 6.9-3.3 16-4.2 17.6C2.4 34.2 0 36.8 0 42c0 3.7 5.2 7.2 5.6 11.4.1 1.2 0 2.3.1 3.4 2 17.5 17.9 21.7 25.4 21.7 7.6 0 23.4-4.2 25.4-21.7.2-1 0-2.1.1-3.4.6-4.2 5.8-7.7 5.8-11.4zM33.2 26.8c-.7-.1-3.4-.1-4.1 0-1.7.3-5.8 1-5.8-1.1 0-1.1 6.7-2.3 7.8-2.3 1.1 0 7.8 1.2 7.8 2.3.1 2-3.9 1.4-5.7 1.1z"/>
	</symbol>

	<symbol viewBox="0 0 57 97.7" id="icon-boyarin">
		<path fill="currentColor" d="M51.1 15.2c-.4-5.4-.6-10.8-2.5-15.2-.8 0-1.5 7.3-2.3 10.9-1.5 7.1-3.7 8.3-4.4 8.3-.9-3.9-4.4-4.2-7.8-5.9-1.2-.6-2.3-1.1-3.6-1.2-.7-.1-1.3.1-2 .1s-1.3-.2-2-.1c-1.3.1-2.4.6-3.6 1.2-3.4 1.6-6.9 2-7.8 5.9-.7 0-3-1.1-4.4-8.3C9.9 7.3 9.2 0 8.4 0 6.5 4.4 6.3 9.8 5.9 15.2 5 38.8 0 51.5 0 62.4c0 26.1 11.7 35.3 28.5 35.3S57 88.5 57 62.4c0-10.9-5-23.6-5.9-47.2zM34.4 25c-2.8 1.2-5.4-.7-5.9-.7h-.2c-.5 0-3.1 1.9-5.9.7-.8-3.6 2.4-4 5.9-3.9 3.7-.2 6.9.3 6.1 3.9z"/>
	</symbol>

	<symbol viewBox="0 0 44.7 104.8" id="icon-sage">
		<path fill="currentColor" d="M44 0h-.1c-2.8 21.5-5.4 22.6-7 22.7-1.4.1-3.6-1.8-4.9-2.5-1.5-.9-4.1-2.5-9.1-2.5s-7.6 1.7-9.1 2.5c-1.3.7-3.5 2.6-4.9 2.5C7.4 22.6 4.8 21.5 2 0h-.1C-.2 12.2.3 50.2 3.1 63.6c2.6 18.5 10.1 35.1 13.4 39.6.7 1 3.5 1.6 6.4 1.6 2.9 0 5.7-.5 6.4-1.6 3.3-4.5 10.8-21.1 13.4-39.6C45.5 50.2 46 12.2 44 0zM22.9 28.2c-3.4 0-6.7.2-10.1.5 1.1-1.8 9-3.2 10.1-3.4 1.1.2 9 1.7 10.1 3.4-3.4-.4-6.7-.5-10.1-.5z"/>
	</symbol>

	<symbol viewBox="0 0 23 20" id="icon-scissors">
		<path fill="currentColor" d="M8.5 4c0-2.2-1.8-4-4-4s-4 1.8-4 4 1.8 4 4 4c.6 0 1.1-.1 1.6-.4L8.5 10l-2.4 2.4c-.5-.3-1-.4-1.6-.4-2.2 0-4 1.8-4 4s1.8 4 4 4 4-1.8 4-4c0-.6-.1-1.1-.4-1.6l2.4-2.4 7 7h4L8.1 5.6c.3-.5.4-1 .4-1.6zm-4 2c-1.1 0-2-.9-2-2s.9-2 2-2 2 .9 2 2-.9 2-2 2zm0 12c-1.1 0-2-.9-2-2s.9-2 2-2 2 .9 2 2-.9 2-2 2zm6-8.5c.3 0 .5.2.5.5s-.2.5-.5.5-.5-.2-.5-.5.2-.5.5-.5zm11-8.5h-4l-6 6 2 2 8-8z"/>
	</symbol>

	<symbol viewBox="0 0 45 12.9" id="icon-mustache">
		<path fill="currentColor" d="M22.5 8.2c1.2 1.7 3.6 4.4 8.8 4.7 7.1.3 13.7-5.2 13.7-7.3-2.8 2.5-7.4 2.7-9.9 1.7C31.3 5.8 32 2.8 29.2.9c-1.6-1.1-3.8-1.2-5.7 0-.3.2-.7.5-1 .8-.3-.3-.7-.6-1-.8-1.9-1.2-4.1-1.1-5.7 0-2.8 2-2.1 4.9-5.9 6.4-2.5 1-7.1.8-9.9-1.7 0 2.1 6.5 7.6 13.7 7.3 5.2-.2 7.6-3 8.8-4.7z"/>
	</symbol>

	<symbol viewBox="0 0 22.1 21.2" id="icon-beard">
		<path fill="currentColor" d="M21.8 0h-.1c-1 3.3-1.3 7.3-4 8.8-.5-1.4-1.8-2.1-3.2-2.7-.9-.4-1.9-1.1-2.8-1.1-.2 0-.4 0-.6.1-.3-.1-.5-.1-.7-.1-.9 0-1.9.7-2.8 1.1-1.5.7-2.7 1.3-3.2 2.7-2.8-1.5-3-5.6-4-8.8H.3C.1.3.1.7 0 1c0 .8.2 9.2.8 12.2.5 2.7 2.6 4.6 4.6 5.9 1.4.9 3.6 2.1 5.6 2.1 1.9 0 4.2-1.2 5.6-2.1 2-1.3 4.1-3.2 4.6-5.9.6-3 .8-11.4.8-12.2 0-.3-.1-.7-.2-1zm-6 12c-.1.7-.7 1.5-1.4 1.5-1.3.1-1.9-1.9-3.4-1.9-1.4 0-2.1 1.9-3.4 1.9-.7 0-1.3-.8-1.4-1.5-.1-.8.3-2 .7-2.4.5-.5 1.2-.4 2-.5.9-.1 1.7-.4 2.1-.8.5.5 1.2.7 2.1.8.8.1 1.5.1 2 .5.5.5.9 1.6.7 2.4z"/>
	</symbol>

	<symbol viewBox="0 0 141.7 139.5" id="clock">
		<path fill="currentColor" d="M71.8 21.5V1c0-.6-.4-1-1-1s-1 .4-1 1v20.5h1c.4-.1.7 0 1 0zm-26 6.9c.6-.3 1.1-.7 1.7-1L37.3 9.7c-.3-.5-.9-.6-1.4-.4-.5.3-.6.9-.4 1.4l10.3 17.7zm-35.3 6.3c-.3.5-.1 1.1.4 1.4l17.7 10.3c.3-.6.7-1.2 1-1.7L11.9 34.4c-.5-.3-1.1-.2-1.4.3zm95.9-26.2c-.5-.3-1.1-.1-1.4.4L94.2 27.5c.6.3 1.2.7 1.7 1l10.8-18.6c.4-.5.2-1.1-.3-1.4zm25.4 27.2c.5-.3.6-.9.4-1.4-.3-.5-.9-.6-1.4-.4l-18.6 10.8c.3.6.7 1.1 1 1.7l18.6-10.7zM22.5 69.8v-1H1c-.6 0-1 .4-1 1s.4 1 1 1h21.5v-1zm118.2-1h-21.5v2h21.5c.6 0 1-.4 1-1s-.5-1-1-1zm-9.9 34.6l-17.7-10.3c-.3.6-.7 1.2-1 1.7l17.7 10.3c.2.1.3.1.5.1.3 0 .7-.2.9-.5.2-.4.1-1-.4-1.3zm-120.9.5c-.5.3-.6.9-.4 1.4.2.3.5.5.9.5.2 0 .3 0 .5-.1l18.6-10.8c-.3-.6-.7-1.1-1-1.7L9.9 103.9zm86 7.2c-.6.3-1.1.7-1.7 1l10.2 17.7c.2.3.5.5.9.5.2 0 .3 0 .5-.1.5-.3.6-.9.4-1.4l-10.3-17.7zm-61 18.6c-.3.5-.1 1.1.4 1.4.2.1.3.1.5.1.3 0 .7-.2.9-.5l10.8-18.6c-.6-.3-1.2-.7-1.7-1l-10.9 18.6zm34.9-11.6v20.5c0 .6.4 1 1 1s1-.4 1-1v-20.5h-2zm34.9-66.2c.7-.4 1-1.3.5-2-.4-.7-1.3-1-2-.5L74.8 65.7c-1-1-2.4-1.6-4-1.6-1.5 0-2.9.6-4 1.6L46.5 53.9c-.7-.4-1.6-.2-2.1.5-.4.7-.2 1.6.5 2.1l20.3 11.8c-.1.5-.2.9-.2 1.4 0 3.1 2.5 5.7 5.7 5.7 3.1 0 5.7-2.5 5.7-5.7 0-.5-.1-1-.2-1.4l28.5-16.4zM75.3 66.3zm.4.6zm-9.7 0c-.1 0-.1 0 0 0-.1 0-.1 0 0 0zm.4-.6s-.1 0 0 0c-.1 0 0 0 0 0zm4.4 6.1c-1.5 0-2.7-1.2-2.7-2.7s1.2-2.7 2.7-2.7c1.5 0 2.7 1.2 2.7 2.7s-1.2 2.7-2.7 2.7z"/>
	</symbol>
</svg>